<svg xmlns="http://www.w3.org/2000/svg" xmlns:xlink="http://www.w3.org/1999/xlink" id="Layer_1" data-name="Layer 1" viewBox="0 0 100 100"><defs><style>.cls-1{fill:none;}.cls-2{opacity:0.12;}.cls-3{fill:#5383c6;}.cls-4{opacity:0.51;}.cls-5{opacity:0.05;}.cls-6{fill:#1c1139;}.cls-7{fill:#6a9cd9;}.cls-8{fill:#fff;}.cls-9{fill:#2f5696;}.cls-10{fill:#eef7ff;}.cls-11{fill:#89bcef;}.cls-12{fill:#12d78f;}.cls-13{fill:#5482c6;}.cls-14{clip-path:url(#clip-path);}.cls-15{fill:#cdf6e7;}.cls-16{fill:#123517;}.cls-17{fill:#13d68f;}</style><clipPath id="clip-path"><circle class="cls-1" cx="55.62" cy="35.94" r="10.48"></circle></clipPath></defs><g class="cls-2"><path class="cls-3" d="M87.21,75.83a.52.52,0,0,1,.51-.5.5.5,0,0,1,.47.5.51.51,0,0,1-.51.5A.48.48,0,0,1,87.21,75.83Z"></path><path class="cls-3" d="M87.21,75.83a.52.52,0,0,1,.51-.5.5.5,0,0,1,.47.5.51.51,0,0,1-.51.5A.48.48,0,0,1,87.21,75.83Z"></path><path class="cls-3" d="M83,75.83a.52.52,0,0,1,.51-.5.51.51,0,0,1,.51.5.58.58,0,0,1-.55.5A.48.48,0,0,1,83,75.83Z"></path><path class="cls-3" d="M83,75.83a.52.52,0,0,1,.51-.5.51.51,0,0,1,.51.5.58.58,0,0,1-.55.5A.48.48,0,0,1,83,75.83Z"></path><path class="cls-3" d="M78.81,75.83a.51.51,0,0,1,1,0,.58.58,0,0,1-.55.5A.51.51,0,0,1,78.81,75.83Z"></path><path class="cls-3" d="M78.81,75.83a.51.51,0,0,1,1,0,.58.58,0,0,1-.55.5A.51.51,0,0,1,78.81,75.83Z"></path><path class="cls-3" d="M74.61,75.83a.51.51,0,1,1,.51.5A.52.52,0,0,1,74.61,75.83Z"></path><path class="cls-3" d="M74.61,75.83a.51.51,0,1,1,.51.5A.52.52,0,0,1,74.61,75.83Z"></path><path class="cls-3" d="M70.41,75.83a.51.51,0,0,1,.51-.5.5.5,0,1,1,0,1A.51.51,0,0,1,70.41,75.83Z"></path><path class="cls-3" d="M70.41,75.83a.51.51,0,0,1,.51-.5.5.5,0,1,1,0,1A.51.51,0,0,1,70.41,75.83Z"></path><path class="cls-3" d="M66.21,75.83a.51.51,0,0,1,.51-.5.5.5,0,1,1,0,1A.51.51,0,0,1,66.21,75.83Z"></path><path class="cls-3" d="M66.21,75.83a.51.51,0,0,1,.51-.5.5.5,0,1,1,0,1A.51.51,0,0,1,66.21,75.83Z"></path><path class="cls-3" d="M87.68,71.9a.5.5,0,1,0,.51.5A.5.5,0,0,0,87.68,71.9Z"></path><path class="cls-3" d="M87.68,71.9a.5.5,0,1,0,.51.5A.5.5,0,0,0,87.68,71.9Z"></path><path class="cls-3" d="M83.48,71.9a.5.5,0,1,0,.51.5A.5.5,0,0,0,83.48,71.9Z"></path><path class="cls-3" d="M83.48,71.9a.5.5,0,1,0,.51.5A.5.5,0,0,0,83.48,71.9Z"></path><path class="cls-3" d="M79.28,71.9a.5.5,0,1,0,.51.5A.5.5,0,0,0,79.28,71.9Z"></path><path class="cls-3" d="M79.28,71.9a.5.5,0,1,0,.51.5A.5.5,0,0,0,79.28,71.9Z"></path><path class="cls-3" d="M74.61,72.4a.51.51,0,1,1,.51.5A.52.52,0,0,1,74.61,72.4Z"></path><path class="cls-3" d="M74.61,72.4a.51.51,0,1,1,.51.5A.52.52,0,0,1,74.61,72.4Z"></path><path class="cls-3" d="M70.41,72.4a.51.51,0,0,1,.51-.5.5.5,0,1,1,0,1A.51.51,0,0,1,70.41,72.4Z"></path><path class="cls-3" d="M70.41,72.4a.51.51,0,0,1,.51-.5.5.5,0,1,1,0,1A.51.51,0,0,1,70.41,72.4Z"></path><path class="cls-3" d="M66.21,72.4a.51.51,0,0,1,.51-.5.5.5,0,1,1,0,1A.51.51,0,0,1,66.21,72.4Z"></path><path class="cls-3" d="M66.21,72.4a.51.51,0,0,1,.51-.5.5.5,0,1,1,0,1A.51.51,0,0,1,66.21,72.4Z"></path><path class="cls-3" d="M87.68,68.47a.5.5,0,1,0,.51.5A.5.5,0,0,0,87.68,68.47Z"></path><path class="cls-3" d="M87.68,68.47a.5.5,0,1,0,.51.5A.5.5,0,0,0,87.68,68.47Z"></path><path class="cls-3" d="M83.48,68.47A.5.5,0,1,0,84,69,.5.5,0,0,0,83.48,68.47Z"></path><path class="cls-3" d="M83.48,68.47A.5.5,0,1,0,84,69,.5.5,0,0,0,83.48,68.47Z"></path><path class="cls-3" d="M79.28,68.47a.5.5,0,1,0,.51.5A.5.5,0,0,0,79.28,68.47Z"></path><path class="cls-3" d="M79.28,68.47a.5.5,0,1,0,.51.5A.5.5,0,0,0,79.28,68.47Z"></path><path class="cls-3" d="M74.61,69a.51.51,0,1,1,.51.5A.52.52,0,0,1,74.61,69Z"></path><path class="cls-3" d="M74.61,69a.51.51,0,1,1,.51.5A.52.52,0,0,1,74.61,69Z"></path><path class="cls-3" d="M70.41,69a.51.51,0,0,1,.51-.5.5.5,0,1,1,0,1A.51.51,0,0,1,70.41,69Z"></path><path class="cls-3" d="M70.41,69a.51.51,0,0,1,.51-.5.5.5,0,1,1,0,1A.51.51,0,0,1,70.41,69Z"></path><path class="cls-3" d="M66.21,69a.51.51,0,0,1,.51-.5.5.5,0,1,1,0,1A.51.51,0,0,1,66.21,69Z"></path><path class="cls-3" d="M66.21,69a.51.51,0,0,1,.51-.5.5.5,0,1,1,0,1A.51.51,0,0,1,66.21,69Z"></path><path class="cls-3" d="M87.21,86.76a.52.52,0,0,1,.51-.5.5.5,0,0,1,.47.5.51.51,0,0,1-.51.5A.48.48,0,0,1,87.21,86.76Z"></path><path class="cls-3" d="M87.21,86.76a.52.52,0,0,1,.51-.5.5.5,0,0,1,.47.5.51.51,0,0,1-.51.5A.48.48,0,0,1,87.21,86.76Z"></path><path class="cls-3" d="M83,86.76a.52.52,0,0,1,.51-.5.51.51,0,0,1,.51.5.58.58,0,0,1-.55.5A.48.48,0,0,1,83,86.76Z"></path><path class="cls-3" d="M83,86.76a.52.52,0,0,1,.51-.5.51.51,0,0,1,.51.5.58.58,0,0,1-.55.5A.48.48,0,0,1,83,86.76Z"></path><path class="cls-3" d="M78.81,86.76a.51.51,0,0,1,1,0,.58.58,0,0,1-.55.5A.51.51,0,0,1,78.81,86.76Z"></path><path class="cls-3" d="M78.81,86.76a.51.51,0,0,1,1,0,.58.58,0,0,1-.55.5A.51.51,0,0,1,78.81,86.76Z"></path><path class="cls-3" d="M74.61,86.76a.51.51,0,1,1,.51.5A.52.52,0,0,1,74.61,86.76Z"></path><path class="cls-3" d="M74.61,86.76a.51.51,0,1,1,.51.5A.52.52,0,0,1,74.61,86.76Z"></path><path class="cls-3" d="M70.41,86.76a.51.51,0,0,1,.51-.5.5.5,0,1,1,0,1A.51.51,0,0,1,70.41,86.76Z"></path><path class="cls-3" d="M70.41,86.76a.51.51,0,0,1,.51-.5.5.5,0,1,1,0,1A.51.51,0,0,1,70.41,86.76Z"></path><path class="cls-3" d="M66.21,86.76a.51.51,0,0,1,.51-.5.5.5,0,1,1,0,1A.51.51,0,0,1,66.21,86.76Z"></path><path class="cls-3" d="M66.21,86.76a.51.51,0,0,1,.51-.5.5.5,0,1,1,0,1A.51.51,0,0,1,66.21,86.76Z"></path><path class="cls-3" d="M87.68,82.83a.5.5,0,0,0-.51.5.51.51,0,0,0,1,0A.5.5,0,0,0,87.68,82.83Z"></path><path class="cls-3" d="M87.68,82.83a.5.5,0,0,0-.51.5.51.51,0,0,0,1,0A.5.5,0,0,0,87.68,82.83Z"></path><path class="cls-3" d="M83.48,82.83a.5.5,0,0,0-.51.5.51.51,0,0,0,1,0A.5.5,0,0,0,83.48,82.83Z"></path><path class="cls-3" d="M83.48,82.83a.5.5,0,0,0-.51.5.51.51,0,0,0,1,0A.5.5,0,0,0,83.48,82.83Z"></path><path class="cls-3" d="M79.28,82.83a.5.5,0,0,0-.51.5.51.51,0,0,0,1,0A.5.5,0,0,0,79.28,82.83Z"></path><path class="cls-3" d="M79.28,82.83a.5.5,0,0,0-.51.5.51.51,0,0,0,1,0A.5.5,0,0,0,79.28,82.83Z"></path><path class="cls-3" d="M74.61,83.33a.51.51,0,1,1,.51.5A.52.52,0,0,1,74.61,83.33Z"></path><path class="cls-3" d="M74.61,83.33a.51.51,0,1,1,.51.5A.52.52,0,0,1,74.61,83.33Z"></path><path class="cls-3" d="M70.41,83.33a.51.51,0,0,1,.51-.5.5.5,0,1,1,0,1A.51.51,0,0,1,70.41,83.33Z"></path><path class="cls-3" d="M70.41,83.33a.51.51,0,0,1,.51-.5.5.5,0,1,1,0,1A.51.51,0,0,1,70.41,83.33Z"></path><path class="cls-3" d="M66.21,83.33a.51.51,0,0,1,.51-.5.5.5,0,1,1,0,1A.51.51,0,0,1,66.21,83.33Z"></path><path class="cls-3" d="M66.21,83.33a.51.51,0,0,1,.51-.5.5.5,0,1,1,0,1A.51.51,0,0,1,66.21,83.33Z"></path><path class="cls-3" d="M87.68,79.4a.5.5,0,0,0-.51.5.51.51,0,0,0,1,0A.5.5,0,0,0,87.68,79.4Z"></path><path class="cls-3" d="M87.68,79.4a.5.5,0,0,0-.51.5.51.51,0,0,0,1,0A.5.5,0,0,0,87.68,79.4Z"></path><path class="cls-3" d="M83.48,79.4a.5.5,0,0,0-.51.5.51.51,0,0,0,1,0A.5.5,0,0,0,83.48,79.4Z"></path><path class="cls-3" d="M83.48,79.4a.5.5,0,0,0-.51.5.51.51,0,0,0,1,0A.5.5,0,0,0,83.48,79.4Z"></path><path class="cls-3" d="M79.28,79.4a.5.5,0,0,0-.51.5.51.51,0,0,0,1,0A.5.5,0,0,0,79.28,79.4Z"></path><path class="cls-3" d="M79.28,79.4a.5.5,0,0,0-.51.5.51.51,0,0,0,1,0A.5.5,0,0,0,79.28,79.4Z"></path><path class="cls-3" d="M74.61,79.9a.51.51,0,1,1,.51.5A.52.52,0,0,1,74.61,79.9Z"></path><path class="cls-3" d="M74.61,79.9a.51.51,0,1,1,.51.5A.52.52,0,0,1,74.61,79.9Z"></path><path class="cls-3" d="M70.41,79.9a.51.51,0,0,1,.51-.5.5.5,0,1,1,0,1A.51.51,0,0,1,70.41,79.9Z"></path><path class="cls-3" d="M70.41,79.9a.51.51,0,0,1,.51-.5.5.5,0,1,1,0,1A.51.51,0,0,1,70.41,79.9Z"></path><path class="cls-3" d="M66.21,79.9a.51.51,0,0,1,.51-.5.5.5,0,1,1,0,1A.51.51,0,0,1,66.21,79.9Z"></path><path class="cls-3" d="M66.21,79.9a.51.51,0,0,1,.51-.5.5.5,0,1,1,0,1A.51.51,0,0,1,66.21,79.9Z"></path><path class="cls-3" d="M37.93,21a.61.61,0,1,1,.58.63A.6.6,0,0,1,37.93,21Z"></path><path class="cls-3" d="M37.93,21a.61.61,0,1,1,.58.63A.6.6,0,0,1,37.93,21Z"></path><path class="cls-3" d="M32.7,21a.65.65,0,0,1,.64-.62A.64.64,0,0,1,34,21a.73.73,0,0,1-.68.63A.61.61,0,0,1,32.7,21Z"></path><path class="cls-3" d="M32.7,21a.65.65,0,0,1,.64-.62A.64.64,0,0,1,34,21a.73.73,0,0,1-.68.63A.61.61,0,0,1,32.7,21Z"></path><path class="cls-3" d="M27.48,21a.64.64,0,0,1,1.27,0,.73.73,0,0,1-.68.63A.63.63,0,0,1,27.48,21Z"></path><path class="cls-3" d="M27.48,21a.64.64,0,0,1,1.27,0,.73.73,0,0,1-.68.63A.63.63,0,0,1,27.48,21Z"></path><path class="cls-3" d="M22.26,21a.64.64,0,0,1,.63-.62.63.63,0,1,1,0,1.25A.64.64,0,0,1,22.26,21Z"></path><path class="cls-3" d="M22.26,21a.64.64,0,0,1,.63-.62.63.63,0,1,1,0,1.25A.64.64,0,0,1,22.26,21Z"></path><path class="cls-3" d="M17,21a.65.65,0,0,1,.64-.62.63.63,0,1,1,0,1.25A.65.65,0,0,1,17,21Z"></path><path class="cls-3" d="M17,21a.65.65,0,0,1,.64-.62.63.63,0,1,1,0,1.25A.65.65,0,0,1,17,21Z"></path><path class="cls-3" d="M11.81,21a.64.64,0,1,1,.63.63A.64.64,0,0,1,11.81,21Z"></path><path class="cls-3" d="M11.81,21a.64.64,0,1,1,.63.63A.64.64,0,0,1,11.81,21Z"></path><path class="cls-3" d="M38.51,16.13a.63.63,0,1,0,0,1.25.63.63,0,1,0,0-1.25Z"></path><path class="cls-3" d="M38.51,16.13a.63.63,0,1,0,0,1.25.63.63,0,1,0,0-1.25Z"></path><path class="cls-3" d="M33.29,16.13a.63.63,0,1,0,.63.63A.63.63,0,0,0,33.29,16.13Z"></path><path class="cls-3" d="M33.29,16.13a.63.63,0,1,0,.63.63A.63.63,0,0,0,33.29,16.13Z"></path><path class="cls-3" d="M28.07,16.13a.63.63,0,1,0,0,1.25.63.63,0,1,0,0-1.25Z"></path><path class="cls-3" d="M28.07,16.13a.63.63,0,1,0,0,1.25.63.63,0,1,0,0-1.25Z"></path><path class="cls-3" d="M22.26,16.76a.64.64,0,0,1,.63-.63.63.63,0,1,1,0,1.25A.64.64,0,0,1,22.26,16.76Z"></path><path class="cls-3" d="M22.26,16.76a.64.64,0,0,1,.63-.63.63.63,0,1,1,0,1.25A.64.64,0,0,1,22.26,16.76Z"></path><path class="cls-3" d="M17,16.76a.65.65,0,0,1,.64-.63.63.63,0,1,1,0,1.25A.65.65,0,0,1,17,16.76Z"></path><path class="cls-3" d="M17,16.76a.65.65,0,0,1,.64-.63.63.63,0,1,1,0,1.25A.65.65,0,0,1,17,16.76Z"></path><path class="cls-3" d="M11.81,16.76a.64.64,0,1,1,.63.62A.64.64,0,0,1,11.81,16.76Z"></path><path class="cls-3" d="M11.81,16.76a.64.64,0,1,1,.63.62A.64.64,0,0,1,11.81,16.76Z"></path><path class="cls-3" d="M38.51,11.86a.63.63,0,1,0,0,1.25.63.63,0,1,0,0-1.25Z"></path><path class="cls-3" d="M38.51,11.86a.63.63,0,1,0,0,1.25.63.63,0,1,0,0-1.25Z"></path><path class="cls-3" d="M33.29,11.86a.63.63,0,1,0,.63.63A.63.63,0,0,0,33.29,11.86Z"></path><path class="cls-3" d="M33.29,11.86a.63.63,0,1,0,.63.63A.63.63,0,0,0,33.29,11.86Z"></path><path class="cls-3" d="M28.07,11.86a.63.63,0,1,0,0,1.25.63.63,0,1,0,0-1.25Z"></path><path class="cls-3" d="M28.07,11.86a.63.63,0,1,0,0,1.25.63.63,0,1,0,0-1.25Z"></path><path class="cls-3" d="M22.26,12.49a.64.64,0,0,1,.63-.63.63.63,0,1,1,0,1.25A.64.64,0,0,1,22.26,12.49Z"></path><path class="cls-3" d="M22.26,12.49a.64.64,0,0,1,.63-.63.63.63,0,1,1,0,1.25A.64.64,0,0,1,22.26,12.49Z"></path><path class="cls-3" d="M17,12.49a.65.65,0,0,1,.64-.63.63.63,0,1,1,0,1.25A.65.65,0,0,1,17,12.49Z"></path><path class="cls-3" d="M17,12.49a.65.65,0,0,1,.64-.63.63.63,0,1,1,0,1.25A.65.65,0,0,1,17,12.49Z"></path><path class="cls-3" d="M11.81,12.49a.64.64,0,1,1,.63.62A.64.64,0,0,1,11.81,12.49Z"></path><path class="cls-3" d="M11.81,12.49a.64.64,0,1,1,.63.62A.64.64,0,0,1,11.81,12.49Z"></path><path class="cls-3" d="M37.93,34.61a.61.61,0,1,1,.58.63A.6.6,0,0,1,37.93,34.61Z"></path><path class="cls-3" d="M37.93,34.61a.61.61,0,1,1,.58.63A.6.6,0,0,1,37.93,34.61Z"></path><path class="cls-3" d="M32.7,34.61a.65.65,0,0,1,.64-.62.64.64,0,0,1,.63.62.73.73,0,0,1-.68.63A.61.61,0,0,1,32.7,34.61Z"></path><path class="cls-3" d="M32.7,34.61a.65.65,0,0,1,.64-.62.64.64,0,0,1,.63.62.73.73,0,0,1-.68.63A.61.61,0,0,1,32.7,34.61Z"></path><path class="cls-3" d="M27.48,34.61a.64.64,0,0,1,1.27,0,.73.73,0,0,1-.68.63A.63.63,0,0,1,27.48,34.61Z"></path><path class="cls-3" d="M27.48,34.61a.64.64,0,0,1,1.27,0,.73.73,0,0,1-.68.63A.63.63,0,0,1,27.48,34.61Z"></path><path class="cls-3" d="M22.26,34.61a.64.64,0,0,1,.63-.62.63.63,0,1,1,0,1.25A.64.64,0,0,1,22.26,34.61Z"></path><path class="cls-3" d="M22.26,34.61a.64.64,0,0,1,.63-.62.63.63,0,1,1,0,1.25A.64.64,0,0,1,22.26,34.61Z"></path><path class="cls-3" d="M17,34.61a.65.65,0,0,1,.64-.62.63.63,0,1,1,0,1.25A.65.65,0,0,1,17,34.61Z"></path><path class="cls-3" d="M17,34.61a.65.65,0,0,1,.64-.62.63.63,0,1,1,0,1.25A.65.65,0,0,1,17,34.61Z"></path><path class="cls-3" d="M11.81,34.61a.64.64,0,1,1,.63.63A.64.64,0,0,1,11.81,34.61Z"></path><path class="cls-3" d="M11.81,34.61a.64.64,0,1,1,.63.63A.64.64,0,0,1,11.81,34.61Z"></path><path class="cls-3" d="M38.51,29.72a.63.63,0,1,0,0,1.25.63.63,0,1,0,0-1.25Z"></path><path class="cls-3" d="M38.51,29.72a.63.63,0,1,0,0,1.25.63.63,0,1,0,0-1.25Z"></path><path class="cls-3" d="M33.29,29.72a.63.63,0,1,0,.63.63A.63.63,0,0,0,33.29,29.72Z"></path><path class="cls-3" d="M33.29,29.72a.63.63,0,1,0,.63.63A.63.63,0,0,0,33.29,29.72Z"></path><path class="cls-3" d="M28.07,29.72a.63.63,0,1,0,0,1.25.63.63,0,1,0,0-1.25Z"></path><path class="cls-3" d="M28.07,29.72a.63.63,0,1,0,0,1.25.63.63,0,1,0,0-1.25Z"></path><path class="cls-3" d="M22.26,30.35a.64.64,0,0,1,.63-.63.63.63,0,1,1,0,1.25A.64.64,0,0,1,22.26,30.35Z"></path><path class="cls-3" d="M22.26,30.35a.64.64,0,0,1,.63-.63.63.63,0,1,1,0,1.25A.64.64,0,0,1,22.26,30.35Z"></path><path class="cls-3" d="M17,30.35a.65.65,0,0,1,.64-.63.63.63,0,1,1,0,1.25A.65.65,0,0,1,17,30.35Z"></path><path class="cls-3" d="M17,30.35a.65.65,0,0,1,.64-.63.63.63,0,1,1,0,1.25A.65.65,0,0,1,17,30.35Z"></path><path class="cls-3" d="M11.81,30.35a.64.64,0,1,1,.63.62A.64.64,0,0,1,11.81,30.35Z"></path><path class="cls-3" d="M11.81,30.35a.64.64,0,1,1,.63.62A.64.64,0,0,1,11.81,30.35Z"></path><path class="cls-3" d="M38.51,25.46a.62.62,0,0,0-.63.62.63.63,0,0,0,.63.62.63.63,0,0,0,.64-.62A.63.63,0,0,0,38.51,25.46Z"></path><path class="cls-3" d="M38.51,25.46a.62.62,0,0,0-.63.62.63.63,0,0,0,.63.62.63.63,0,0,0,.64-.62A.63.63,0,0,0,38.51,25.46Z"></path><path class="cls-3" d="M33.29,25.46a.62.62,0,0,0-.63.62.63.63,0,0,0,1.26,0A.62.62,0,0,0,33.29,25.46Z"></path><path class="cls-3" d="M33.29,25.46a.62.62,0,0,0-.63.62.63.63,0,0,0,1.26,0A.62.62,0,0,0,33.29,25.46Z"></path><path class="cls-3" d="M28.07,25.46a.63.63,0,0,0-.64.62.63.63,0,0,0,.64.62.63.63,0,0,0,.63-.62A.62.62,0,0,0,28.07,25.46Z"></path><path class="cls-3" d="M28.07,25.46a.63.63,0,0,0-.64.62.63.63,0,0,0,.64.62.63.63,0,0,0,.63-.62A.62.62,0,0,0,28.07,25.46Z"></path><path class="cls-3" d="M22.26,26.08a.63.63,0,0,1,.63-.62.64.64,0,0,1,.64.62.65.65,0,0,1-.64.62A.64.64,0,0,1,22.26,26.08Z"></path><path class="cls-3" d="M22.26,26.08a.63.63,0,0,1,.63-.62.64.64,0,0,1,.64.62.65.65,0,0,1-.64.62A.64.64,0,0,1,22.26,26.08Z"></path><path class="cls-3" d="M17,26.08a.64.64,0,0,1,.64-.62.63.63,0,0,1,.63.62.64.64,0,0,1-.63.62A.65.65,0,0,1,17,26.08Z"></path><path class="cls-3" d="M17,26.08a.64.64,0,0,1,.64-.62.63.63,0,0,1,.63.62.64.64,0,0,1-.63.62A.65.65,0,0,1,17,26.08Z"></path><path class="cls-3" d="M11.81,26.08a.64.64,0,0,1,1.27,0,.64.64,0,0,1-1.27,0Z"></path><path class="cls-3" d="M11.81,26.08a.64.64,0,0,1,1.27,0,.64.64,0,0,1-1.27,0Z"></path><g class="cls-4"><polygon class="cls-3" points="32.26 38.14 14.79 27.06 14.79 49.05 32.26 38.14"></polygon></g></g><g class="cls-5"><ellipse class="cls-6" cx="50" cy="80.82" rx="36.54" ry="5.98"></ellipse></g><rect class="cls-7" x="30.23" y="13.2" width="50.8" height="67.08" rx="2.21"></rect><rect class="cls-8" x="32.35" y="15.98" width="46.55" height="59.84"></rect><circle class="cls-9" cx="55.62" cy="14.68" r="0.54"></circle><circle class="cls-9" cx="55.62" cy="77.98" r="1.18"></circle><rect class="cls-10" x="34.45" y="18.69" width="42.35" height="54.67" rx="1.27"></rect><path class="cls-11" d="M35.26,18.69H76a.81.81,0,0,1,.81.81v3.66a0,0,0,0,1,0,0H34.45a0,0,0,0,1,0,0V19.5A.81.81,0,0,1,35.26,18.69Z"></path><circle class="cls-12" cx="47.72" cy="56.5" r="6.77"></circle><path class="cls-8" d="M46,53.26a.27.27,0,0,1,.2,0,.27.27,0,0,1,.14.14L47,54.84a.28.28,0,0,1,0,.2.27.27,0,0,1-.1.16l-.76.63a4.68,4.68,0,0,0,.92,1.32,4.56,4.56,0,0,0,1.33.93l.62-.76a.25.25,0,0,1,.16-.11.3.3,0,0,1,.19,0l1.43.61a.29.29,0,0,1,.15.14.28.28,0,0,1,0,.2l-.3,1.32a.24.24,0,0,1-.1.18.35.35,0,0,1-.19.06,5.71,5.71,0,0,1-3-.8,5.88,5.88,0,0,1-2.92-5.08.36.36,0,0,1,.06-.2.32.32,0,0,1,.18-.1Z"></path><circle class="cls-13" cx="63.53" cy="56.5" r="6.77"></circle><path class="cls-8" d="M67,58.06a.27.27,0,0,1-.17.12.21.21,0,0,1-.19,0l-1.44-.58a.29.29,0,0,1-.14-.13.24.24,0,0,1,0-.18l.09-1A4.7,4.7,0,0,0,63.54,56a4.61,4.61,0,0,0-1.6.28l.1,1a.27.27,0,0,1,0,.2.44.44,0,0,1-.15.12l-1.44.57a.26.26,0,0,1-.21,0A.28.28,0,0,1,60,58l-.71-1.15a.24.24,0,0,1,0-.2.31.31,0,0,1,.09-.18A5.78,5.78,0,0,1,62,55a5.87,5.87,0,0,1,3,0,5.72,5.72,0,0,1,2.65,1.55.31.31,0,0,1,.09.18.22.22,0,0,1,0,.19Z"></path><g class="cls-14"><circle class="cls-15" cx="55.62" cy="35.94" r="10.48"></circle><path class="cls-16" d="M56.71,30.06s-3.5-4.67-7.22.72.39,8.1.39,8.1l11.44-.76S63,29,56.71,30.06Z"></path><path class="cls-17" d="M68.57,40c-1.26-.45-7.94-.68-9.78-.6a15.7,15.7,0,0,1-1.47-2.21A2.84,2.84,0,0,0,58.48,35c0-1.71-1.73-3.1-3.87-3.1s-3.87,1.39-3.87,3.1,1.41,2.68,3.31,2.88c-.25.93-.5,2-.51,2A25.75,25.75,0,0,0,46,41.9s-13.4,7.84-11,14.64c2,5.55,9,6.52,11.46,6.69a2.9,2.9,0,0,0,1.35,1.33,2.41,2.41,0,0,0,.45.16c-3.57,4.83-8.84,14.39-4.38,24.52l2.71,4.94s-2.34,2.29-.79,4.34l8.38-5S46.37,78,55.84,72.86a221.14,221.14,0,0,0,2.57,23.93,2.73,2.73,0,0,0-2.54,2.6H66.72c-1-4.75,0-29.23.23-35.74a.75.75,0,0,0,.58.29.92.92,0,0,0,.39,1.12,3,3,0,0,0,1.37.43,4.25,4.25,0,0,0,3.43-.84,3,3,0,0,0,.51-.72,4.62,4.62,0,0,0,.45-1.39c3.47-.79,6.94-3.47,8.82-5.1a8.29,8.29,0,0,0,2.7-4.63C87.09,42.87,68.57,40,68.57,40ZM47.9,49.8l2,8.43a2.19,2.19,0,0,0-1.28.5C46.53,57.91,40,54.75,47.9,49.8ZM67,62.3v-.21l.08,0Zm4.31-4.55a3.91,3.91,0,0,0-1.8-.29,6.13,6.13,0,0,0-2.23.66L68,48C82.78,49.5,72,57.24,71.32,57.75Z"></path><path class="cls-16" d="M58.79,35.12S53.67,35,52.3,31C52.3,31,58.75,29.35,58.79,35.12Z"></path><path class="cls-16" d="M46.64,94.35a.18.18,0,0,1-.16-.12.18.18,0,0,1,.11-.21,18,18,0,0,0,6.28-3.56.16.16,0,0,1,.24,0,.18.18,0,0,1,0,.24,18.35,18.35,0,0,1-6.42,3.64Z"></path><path class="cls-16" d="M62.13,97.11c-2,0-3.7-.15-3.73-.16a.17.17,0,0,1,0-.33,34.59,34.59,0,0,0,7.95-.18.17.17,0,1,1,.07.33A23.21,23.21,0,0,1,62.13,97.11Z"></path><path class="cls-16" d="M65.35,96.94a.16.16,0,0,1-.16-.12c-2.11-7.7,0-37.73,0-38a.17.17,0,0,1,.34,0c0,.3-2.1,30.27,0,37.92a.18.18,0,0,1-.12.21Z"></path><path class="cls-16" d="M65.05,63h0c-.19,0-4.64-.82-4.57-3.83a.18.18,0,0,1,.17-.17.17.17,0,0,1,.17.17c-.07,2.73,4.24,3.49,4.28,3.49a.17.17,0,0,1,.14.2A.16.16,0,0,1,65.05,63Z"></path><path class="cls-16" d="M55.84,73a.16.16,0,0,1-.11,0l-1.16-1.1a.17.17,0,1,1,.23-.24L56,72.74A.16.16,0,0,1,56,73,.14.14,0,0,1,55.84,73Z"></path><path class="cls-16" d="M55.89,40.64a5.55,5.55,0,0,1-2.4-.55.16.16,0,1,1,.13-.29,5.52,5.52,0,0,0,5.16-.29.16.16,0,0,1,.23.05.16.16,0,0,1,0,.22A6.07,6.07,0,0,1,55.89,40.64Z"></path><path class="cls-16" d="M55.89,40.69a5.71,5.71,0,0,1-2.43-.55.22.22,0,1,1,.19-.39,5.49,5.49,0,0,0,5.11-.28.21.21,0,0,1,.23.35A6,6,0,0,1,55.89,40.69Zm-2.34-.86a.11.11,0,0,0,0,.22,5.6,5.6,0,0,0,2.38.54,6,6,0,0,0,3-.85.12.12,0,0,0-.13-.19,5.6,5.6,0,0,1-5.21.29Z"></path><path class="cls-16" d="M50.25,58.29a3,3,0,0,1,1.23.4,2.12,2.12,0,0,1,.91.87.88.88,0,0,1,.08.55.72.72,0,0,1-.1.24c0,.08-.14.13-.19.21a.29.29,0,0,0,0,.31,2,2,0,0,1,.13.34,1.15,1.15,0,0,1,0,.61,1,1,0,0,1-.93.73.13.13,0,0,0-.14.13,1.34,1.34,0,0,1-.1.86.54.54,0,0,1-.58.27.14.14,0,0,0-.17.09,1.09,1.09,0,0,1-.7.73,2.29,2.29,0,0,1-1.37,0,.13.13,0,0,0-.07.26,2.42,2.42,0,0,0,1.55,0,1.36,1.36,0,0,0,.85-.9l-.17.1a.78.78,0,0,0,.85-.34,1.43,1.43,0,0,0,.18-1l-.13.13a1.19,1.19,0,0,0,1.07-.62,1.5,1.5,0,0,0,0-1.41c0-.05,0-.07,0-.1l.11-.11a1.18,1.18,0,0,0,.16-.29,1.11,1.11,0,0,0,0-.65,2.12,2.12,0,0,0-.91-1.07A3.55,3.55,0,0,0,50.25,58c-.07,0-.13.07-.13.14a.14.14,0,0,0,.13.13Z"></path><path class="cls-16" d="M67.27,58a2.27,2.27,0,0,0-1.2.75,1.26,1.26,0,0,0-.18.71,1,1,0,0,0,.17.68,1.4,1.4,0,0,0,.6.38l-.08-.2a1.49,1.49,0,0,0,.1,1.83c.11.13.3-.06.19-.19a1.23,1.23,0,0,1-.06-1.51c.06-.07,0-.16-.08-.19a1,1,0,0,1-.5-.35.67.67,0,0,1-.07-.37,1.12,1.12,0,0,1,0-.41c.14-.51.7-.71,1.15-.87.16-.06.09-.32-.07-.26Z"></path><path class="cls-16" d="M73.55,49.17a.16.16,0,0,1-.13-.08.15.15,0,0,1,.08-.18c4.81-2,3.91-6.06,3.87-6.23a.13.13,0,0,1,.1-.16.12.12,0,0,1,.16.09s1,4.42-4,6.55Z"></path><path class="cls-16" d="M44.65,52.58a.16.16,0,0,1-.09,0c-.18-.17-4.54-4-5.1-5.79a.12.12,0,0,1,.08-.16.13.13,0,0,1,.17.08c.55,1.66,5,5.63,5,5.66a.13.13,0,0,1,0,.19A.12.12,0,0,1,44.65,52.58Z"></path><path class="cls-16" d="M47.91,50a.14.14,0,0,1-.13-.12l-.5-3.15a.13.13,0,0,1,.11-.15.14.14,0,0,1,.16.11l.5,3.15a.14.14,0,0,1-.12.16Z"></path><path class="cls-16" d="M47.91,50.09a.22.22,0,0,1-.21-.18l-.5-3.15a.27.27,0,0,1,0-.16.22.22,0,0,1,.14-.09.21.21,0,0,1,.24.18l.5,3.15a.22.22,0,0,1,0,.16.29.29,0,0,1-.14.08Zm-.5-3.42h0l0,0a.06.06,0,0,0,0,0l.5,3.15a.06.06,0,0,0,.06,0l0,0a.09.09,0,0,0,0,0l-.5-3.15S47.44,46.67,47.41,46.67Z"></path><path class="cls-16" d="M55.73,59.5a32,32,0,0,1-3.44-.15.17.17,0,0,1-.15-.18.17.17,0,0,1,.19-.15c4.43.47,13.58-.38,13.67-.39a.18.18,0,0,1,.19.16A.17.17,0,0,1,66,59C66,59,60.32,59.5,55.73,59.5Z"></path></g><path class="cls-13" d="M22,54.13s-1.79,4.35-1.22,6S24.25,63,24.25,63Z"></path><path class="cls-13" d="M22.65,63.48c.15,3.61.69,17.22.13,19.86h6a1.51,1.51,0,0,0-1.41-1.45,121.43,121.43,0,0,0,1.43-13.3c5.26,2.88.9,11.47.9,11.47l4.65,2.79c.86-1.14-.44-2.41-.44-2.41l1.51-2.75C37.92,72.06,35,66.75,33,64.07l-1-1.58,1.19-6.71a7.4,7.4,0,0,0,.63-1.26,3,3,0,0,0-2.18-4c-.55-.12-1.09-.21-1.58-.28,0,0-.14-.58-.29-1.1,1.06-.11,1.84-.72,1.84-1.6a2,2,0,0,0-2.15-1.72,2,2,0,0,0-2.15,1.72A1.56,1.56,0,0,0,28,48.77,8.48,8.48,0,0,1,27.18,50c-.29,0-.81,0-1.41,0A3.89,3.89,0,0,0,22,54.7l0,.08.4,5.62"></path><path class="cls-6" d="M27.16,48.15s2.84-.07,3.61-2.29C30.77,45.86,27.18,45,27.16,48.15Z"></path><path class="cls-6" d="M27.67,49.34s-2.91-1.56-1.48-3.74.95.42.95.42.49-3.05,4.3-3-.61,1.59-.61,1.59,2-.64,2.15.26-2.34,1.8-2.34,1.8S30,48,29,48.15C29,48.15,28.39,49.85,27.67,49.34Z"></path><line class="cls-17" x1="22.42" y1="60.44" x2="22.65" y2="63.48"></line><path class="cls-13" d="M31.9,50.58a5,5,0,0,1,2.82,2.11c1.37,1.86,4.29,5.19,4.05,6.48s-1,1.88-2,1.73-5.37-4.64-5.37-4.64Z"></path><path class="cls-13" d="M36.12,60.51a2.49,2.49,0,0,0,2.38.37c1.38-.49,4.63-4.57,4.63-4.57s-1.69-1.42-1.76-1.43S37,57.76,37,57.76Z"></path><path class="cls-6" d="M25,67.82a.4.4,0,0,1-.22-.06h0a2.07,2.07,0,0,1-.83-.67,8,8,0,0,1-.11-1.71.2.2,0,0,1,.19-.19h1.81a.2.2,0,0,1,.2.18c.1,1.46,0,1.62,0,1.67a5.09,5.09,0,0,1-.74.68A.48.48,0,0,1,25,67.82Zm-.17-.16a.33.33,0,0,0,.38,0,5,5,0,0,0,.72-.65,4.75,4.75,0,0,0,0-1.6.09.09,0,0,0-.09-.08H24a.09.09,0,0,0-.08.09,6.91,6.91,0,0,0,.1,1.66c0,.1.22.29.78.61Z"></path><path class="cls-6" d="M30.18,67.71a.4.4,0,0,1-.22-.06h0a2,2,0,0,1-.83-.67,8,8,0,0,1-.11-1.7.19.19,0,0,1,.19-.19H31a.2.2,0,0,1,.2.18c.1,1.45,0,1.61,0,1.66a4.54,4.54,0,0,1-.74.68A.48.48,0,0,1,30.18,67.71ZM30,67.56a.37.37,0,0,0,.38,0,4.29,4.29,0,0,0,.72-.66,4.75,4.75,0,0,0,0-1.6.09.09,0,0,0-.09-.08H29.21a.09.09,0,0,0-.08.09,6.82,6.82,0,0,0,.1,1.66c0,.1.22.3.78.62Z"></path><path class="cls-6" d="M28.82,68.64h0l-.76-.1a.06.06,0,0,1-.05-.06,0,0,0,0,1,.06,0l.77.1a0,0,0,0,1,0,.06A0,0,0,0,1,28.82,68.64Z"></path><path class="cls-6" d="M27.39,81.94H22.94a.06.06,0,0,1-.06,0,.06.06,0,0,1,.06-.06h4.45a.06.06,0,0,1,.05.06A0,0,0,0,1,27.39,81.94Z"></path><path class="cls-6" d="M33.93,80.49h0L30.34,78.6a.05.05,0,0,1,0-.08.06.06,0,0,1,.07,0L34,80.39a.06.06,0,0,1,0,.07A.05.05,0,0,1,33.93,80.49Z"></path><path class="cls-6" d="M30.1,50.3h0l-2.91-.24a.06.06,0,0,1,0-.11l2.91.24a.06.06,0,0,1,0,.06A0,0,0,0,1,30.1,50.3Z"></path><path class="cls-6" d="M26.34,63.48a16.37,16.37,0,0,1-3.69-.38.06.06,0,0,1,0-.07.06.06,0,0,1,.07,0A17.77,17.77,0,0,0,32,62.44a.06.06,0,0,1,.07,0,.05.05,0,0,1,0,.07A17.33,17.33,0,0,1,26.34,63.48Z"></path><path class="cls-6" d="M33.46,80.3h0s0-.05,0-.07a13.07,13.07,0,0,0,1.07-12.13,18.29,18.29,0,0,0-3.25-5.3.06.06,0,0,1,0-.08,0,0,0,0,1,.07,0,18.22,18.22,0,0,1,3.28,5.34A13.16,13.16,0,0,1,33.5,80.28Z"></path><path class="cls-6" d="M32.88,57.88h0L32,57.18a0,0,0,0,1,.06-.08l.84.69a0,0,0,0,1,0,.07A0,0,0,0,1,32.88,57.88Z"></path><path class="cls-6" d="M33.39,58.24a.05.05,0,0,1,0,0,0,0,0,0,1,0-.06,5.24,5.24,0,0,0,2.85-3.36,0,0,0,0,1,.06,0s0,0,0,.05a5.31,5.31,0,0,1-2.91,3.42Z"></path><path class="cls-6" d="M22.54,62a0,0,0,0,1-.05,0l-.58-7.87a0,0,0,0,1,.05-.05s.05,0,.05,0L22.59,62a0,0,0,0,1-.05,0Z"></path><path class="cls-6" d="M22.25,58.05h0a2.24,2.24,0,0,1-1.36-.7s0-.06,0-.07a.06.06,0,0,1,.08,0,2.14,2.14,0,0,0,1.29.67,0,0,0,0,1,.05,0A.05.05,0,0,1,22.25,58.05Z"></path><path class="cls-13" d="M40.49,55.39S42.7,53,44.08,53a.2.2,0,0,1,.13.36,3,3,0,0,1-.51.28c-.86.37-.91.59-.91.59a1.05,1.05,0,0,1,.86.37,1.72,1.72,0,0,1-1.88,2.53C39.3,56.93,40.49,55.39,40.49,55.39Z"></path></svg>