<svg xmlns="http://www.w3.org/2000/svg" width="462.678" height="515.972" data-name="Layer 1"><path fill="#3f3d56" d="M193.624 293.456a2.459 2.459 0 0 1 1.286 3.231l-3.34 7.756.38.194-2.278 5.264-.364-.202-11.963 27.786a4.264 4.264 0 0 1-5.082 2.416l-18.6-5.285a3.228 3.228 0 0 1-2.025-4.507l18.747-38.877a3.994 3.994 0 0 1 4.499-2.156l18.302 4.239a2.456 2.456 0 0 1 .438.141z"/><path fill="#29c2ff" d="m178.143 292.072 9.621 2.228a.808.808 0 0 0 .896-.407.916.916 0 0 1 1.014-.46l2.026.47a1.94 1.94 0 0 1 1.345 2.655l-17.313 40.297a2.215 2.215 0 0 1-2.675 1.246l-18.47-5.572a1.71 1.71 0 0 1-1.051-2.37l18.299-38.628a2.76 2.76 0 0 1 3.117-1.508l2.136.495a1.382 1.382 0 0 0 1.055 1.554z"/><path fill="#ccc" d="M253.136 84a42 42 0 1 1 42-42 42.048 42.048 0 0 1-42 42zm0-82a40 40 0 1 0 40 40 40.045 40.045 0 0 0-40-40zm162 121a42 42 0 1 1 42-42 42.048 42.048 0 0 1-42 42zm0-82a40 40 0 1 0 40 40 40.045 40.045 0 0 0-40-40zm-75 215a42 42 0 1 1 42-42 42.048 42.048 0 0 1-42 42zm0-82a40 40 0 1 0 40 40 40.045 40.045 0 0 0-40-40z"/><path fill="#3f3d56" d="m439.136 69.498 5-1s-4.2 4.7-5 5a20.122 20.122 0 0 0 0 3c-9.6 41.2-45 23-45 23 12.9.3 14-5 14-5-7.5-1.1-9-6-9-6a3.09 3.09 0 0 0 4-1c-8.1-2.1-7-10-7-10a10.4 10.4 0 0 0 4.9 1.9c-.9-1.1-8.5-10.2-3.9-14.9 0 0 5.6 10 20.3 10.9l1-.2a7.85 7.85 0 0 1-.2-2.2 10.5 10.5 0 0 1 10.5-10.5c7 0 8.5 4 8.5 4l5-3c-.1 0-.6 5-3.1 6zm-80.33 121.5-37.063.004a3.622 3.622 0 0 0-3.794 3.459l.003 37.145a3.907 3.907 0 0 0 3.795 3.805l37.053-.003a3.71 3.71 0 0 0 3.562-3.806l-.003-37.145a3.405 3.405 0 0 0-3.553-3.459zm-27.088 37.02h-6.362l-.002-19.78h6.362zm-2.963-22.788h-.046a3.46 3.46 0 1 1 .046 0zm26.215 22.786h-6.362l-.001-10.815c0-2.591-.927-4.362-3.228-4.362a3.479 3.479 0 0 0-3.263 2.35 4.286 4.286 0 0 0-.22 1.561l.002 11.267h-6.362l-.002-19.78h6.362v2.752a6.442 6.442 0 0 1 5.737-3.216c4.177 0 7.336 2.752 7.337 8.687z"/><path fill="#3f3d56" fill-rule="evenodd" d="M280.593 42.165a27.456 27.456 0 1 0-31.747 27.124V50.104h-6.973v-7.94h6.973v-6.05c0-6.88 4.1-10.683 10.371-10.683a42.192 42.192 0 0 1 6.147.537v6.758H261.9c-3.408 0-4.475 2.115-4.475 4.29v5.15h7.614l-1.216 7.94-6.398-.001v19.186a27.464 27.464 0 0 0 23.168-27.126z"/><path fill="#ffb8b8" d="m132.337 503.46 11.432-.001 5.437-44.096-16.873.001.004 44.096z"/><path fill="#2f2e41" d="m165.818 514.073-35.93.003-.001-13.882 22.047-.002a13.882 13.882 0 0 1 13.884 13.88z"/><path fill="#ffb8b8" d="m70.715 503.46 11.433-.001 5.436-44.096-16.873.001.004 44.096z"/><path fill="#2f2e41" d="m104.196 514.073-35.93.003v-13.882l22.047-.002a13.882 13.882 0 0 1 13.883 13.88z"/><circle cx="104.196" cy="165.424" r="24.561" fill="#ffb8b8"/><path fill="#ffb8b8" d="M188.179 325.602a9.377 9.377 0 0 0-12.092-7.78l-13.727-16.454-12.033 5.903 19.71 22.964a9.428 9.428 0 0 0 18.142-4.633zM70.045 342.243a9.377 9.377 0 0 0-6.03-13.052l-2.757-21.25-13.322-1.475 4.313 29.955a9.428 9.428 0 0 0 17.796 5.823z"/><path fill="#ccc" d="M51.402 329.25a4.5 4.5 0 0 1-4.451-3.84l-6.558-44.158a31.74 31.74 0 0 1 1.932-16.453l20.131-50.24a12.584 12.584 0 0 1 21.609-3.052 12.56 12.56 0 0 1 1.56 12.868l-9.49 21.228a144.868 144.868 0 0 0-11.624 75.97 4.499 4.499 0 0 1-3.149 4.825l-8.639 2.654a4.508 4.508 0 0 1-1.321.198z"/><path fill="#2f2e41" d="M98.216 189.984a26.205 26.205 0 1 1 4.91-51.826c5.402-3.279 11.681-5.486 17.975-4.925s12.519 4.298 14.872 10.163-.175 13.594-6.027 15.977c-3.752 1.528-7.989.787-11.993.17s-8.371-1.018-11.856 1.048-5.05 7.606-1.93 10.189a10.738 10.738 0 0 1 3.084 11.82c-1.568 4.056-5.85 7.315-9.035 7.384zM67.387 494.576a4.5 4.5 0 0 1-4.5-4.619l4.369-165.816.476-.01 72.227-1.575 12.47 161.236a4.514 4.514 0 0 1-2.98 4.562l-.138.028-14.175.866a4.5 4.5 0 0 1-5.83-3.282l-23.108-103.397a1.5 1.5 0 0 0-2.945.092L86.18 490.05a4.521 4.521 0 0 1-4.214 3.787l-14.353.732q-.113.006-.227.006z"/><path fill="#ccc" d="M88.644 337.866c-8.988 0-16.837-1.358-21.171-5.232-2.785-2.49-3.99-5.876-3.58-10.064 1.54-15.743-1.129-50.248-3.64-76.422a46.495 46.495 0 0 1 10.72-34.276 44.279 44.279 0 0 1 30.87-15.771c8.268-.589 27.63-1.962 33.649 13.453 9.041 23.156 4.62 33.775.343 44.045-3.633 8.725-7.39 17.746-2.785 34.688a253.105 253.105 0 0 0 9.227 27.598c2.494 6.395 3.745 9.604 2.59 11.7-.912 1.654-3.186 2.374-7.063 3.125-1.267.245-2.94.6-4.933 1.025-10.133 2.153-28.847 6.131-44.227 6.131z"/><path fill="#ccc" d="M162.435 323.353h-.103a4.496 4.496 0 0 1-3.376-1.645l-25.46-31.024a48.428 48.428 0 0 1-10.372-23.045l-7.839-48.99a12.584 12.584 0 1 1 24.92-3.488l3.116 25.985a134.263 134.263 0 0 0 26.945 65.934l1.78 2.31a4.499 4.499 0 0 1-.22 5.759l-6.047 6.715a4.496 4.496 0 0 1-3.344 1.49z"/><ellipse cx="284.515" cy="76.902" fill="#3f3d56" rx="16.745" ry="16.929"/><path fill="#3f3d56" d="M287.864 85.93h-3.41V72.94a11.733 11.733 0 0 1-4.405 2.612v-3.128a9.838 9.838 0 0 0 2.9-1.674 6.35 6.35 0 0 0 2.147-2.877h2.768z"/><ellipse cx="284.515" cy="76.902" fill="#29c2ff" rx="16.745" ry="16.929"/><path fill="#fff" d="M287.864 85.93h-3.41V72.94a11.733 11.733 0 0 1-4.405 2.612v-3.128a9.838 9.838 0 0 0 2.9-1.674 6.35 6.35 0 0 0 2.147-2.877h2.768z"/><circle cx="445.749" cy="119.247" r="16.929" fill="#3f3d56"/><path fill="#3f3d56" d="M443.738 122.014a3.964 3.964 0 0 0 .726 2.552 2.105 2.105 0 0 0 1.66.9 1.859 1.859 0 0 0 1.499-.737 3.84 3.84 0 0 0 .6-2.413 4.017 4.017 0 0 0-.647-2.527 2.02 2.02 0 0 0-3.193-.037 3.434 3.434 0 0 0-.645 2.262zm7.343-7.394-3.136.363a2.437 2.437 0 0 0-.6-1.495 1.702 1.702 0 0 0-1.256-.483 2.097 2.097 0 0 0-1.735.965 8.433 8.433 0 0 0-.894 4.018 3.723 3.723 0 0 1 3.01-1.498 4.505 4.505 0 0 1 3.474 1.618 6.02 6.02 0 0 1 1.447 4.173 6.147 6.147 0 0 1-1.521 4.355 5.377 5.377 0 0 1-8.115-.441q-1.65-2.08-1.649-6.821 0-4.862 1.718-7.009a5.448 5.448 0 0 1 4.461-2.147 4.606 4.606 0 0 1 3.187 1.128 5.375 5.375 0 0 1 1.61 3.274z"/><circle cx="445.749" cy="119.247" r="16.929" fill="#29c2ff"/><path fill="#fff" d="M443.738 122.014a3.964 3.964 0 0 0 .726 2.552 2.105 2.105 0 0 0 1.66.9 1.859 1.859 0 0 0 1.499-.737 3.84 3.84 0 0 0 .6-2.413 4.017 4.017 0 0 0-.647-2.527 2.02 2.02 0 0 0-3.193-.037 3.434 3.434 0 0 0-.645 2.262zm7.343-7.394-3.136.363a2.437 2.437 0 0 0-.6-1.495 1.702 1.702 0 0 0-1.256-.483 2.097 2.097 0 0 0-1.735.965 8.433 8.433 0 0 0-.894 4.018 3.723 3.723 0 0 1 3.01-1.498 4.505 4.505 0 0 1 3.474 1.618 6.02 6.02 0 0 1 1.447 4.173 6.147 6.147 0 0 1-1.521 4.355 5.377 5.377 0 0 1-8.115-.441q-1.65-2.08-1.649-6.821 0-4.862 1.718-7.009a5.448 5.448 0 0 1 4.461-2.147 4.606 4.606 0 0 1 3.187 1.128 5.375 5.375 0 0 1 1.61 3.274z"/><circle cx="374.505" cy="250.044" r="16.929" fill="#3f3d56"/><path fill="#3f3d56" d="M372.41 245.813a2.152 2.152 0 0 0 .556 1.578 1.977 1.977 0 0 0 1.48.567 2.002 2.002 0 0 0 1.498-.573 2.165 2.165 0 0 0 .562-1.585 2.1 2.1 0 0 0-.555-1.525 1.957 1.957 0 0 0-1.47-.572 2.008 2.008 0 0 0-1.51.578 2.107 2.107 0 0 0-.562 1.532zm-.305 7.57a3.17 3.17 0 0 0 .697 2.182 2.233 2.233 0 0 0 1.738.783 2.154 2.154 0 0 0 1.686-.753 3.18 3.18 0 0 0 .667-2.176 2.86 2.86 0 0 0-.678-1.994 2.213 2.213 0 0 0-1.722-.755 2.035 2.035 0 0 0-1.797.857 3.204 3.204 0 0 0-.59 1.857zm-.374-4.159a3.858 3.858 0 0 1-1.856-1.525 4.06 4.06 0 0 1-.579-2.127 4.34 4.34 0 0 1 1.34-3.268 6.26 6.26 0 0 1 7.61 0 4.322 4.322 0 0 1 1.352 3.268 3.876 3.876 0 0 1-2.365 3.652 4.481 4.481 0 0 1 2.915 4.339 5.232 5.232 0 0 1-5.549 5.51 5.984 5.984 0 0 1-3.899-1.265 5.001 5.001 0 0 1-1.838-4.1 5.176 5.176 0 0 1 .69-2.632 4.479 4.479 0 0 1 2.18-1.852z"/><circle cx="374.505" cy="250.044" r="16.929" fill="#29c2ff"/><path fill="#fff" d="M372.41 245.813a2.152 2.152 0 0 0 .556 1.578 1.977 1.977 0 0 0 1.48.567 2.002 2.002 0 0 0 1.498-.573 2.165 2.165 0 0 0 .562-1.585 2.1 2.1 0 0 0-.555-1.525 1.957 1.957 0 0 0-1.47-.572 2.008 2.008 0 0 0-1.51.578 2.107 2.107 0 0 0-.562 1.532zm-.305 7.57a3.17 3.17 0 0 0 .697 2.182 2.233 2.233 0 0 0 1.738.783 2.154 2.154 0 0 0 1.686-.753 3.18 3.18 0 0 0 .667-2.176 2.86 2.86 0 0 0-.678-1.994 2.213 2.213 0 0 0-1.722-.755 2.035 2.035 0 0 0-1.797.857 3.204 3.204 0 0 0-.59 1.857zm-.374-4.159a3.858 3.858 0 0 1-1.856-1.525 4.06 4.06 0 0 1-.579-2.127 4.34 4.34 0 0 1 1.34-3.268 6.26 6.26 0 0 1 7.61 0 4.322 4.322 0 0 1 1.352 3.268 3.876 3.876 0 0 1-2.365 3.652 4.481 4.481 0 0 1 2.915 4.339 5.232 5.232 0 0 1-5.549 5.51 5.984 5.984 0 0 1-3.899-1.265 5.001 5.001 0 0 1-1.838-4.1 5.176 5.176 0 0 1 .69-2.632 4.479 4.479 0 0 1 2.18-1.852z"/><path fill="#ccc" d="M232 515.972H1a1 1 0 0 1 0-2h231a1 1 0 0 1 0 2z"/></svg>